name C:\Users\antoi\Documents\MyRepositories\upper-imu-dc\Results\main_tracking\Case_70\ABD01_linearAccelerations_groundFrame.mot
datacolumns 4
datarows 58
range 4.56000000 5.13000000
endheader 
time	radius_imu_x	radius_imu_y	radius_imu_z	
          4.56000000	          0.08190418	          9.67532364	         -0.36763155	
          4.57000000	          0.09803137	          9.64764707	         -0.36276322	
          4.58000000	          0.11505178	          9.62309721	         -0.35691358	
          4.59000000	          0.13095138	          9.60137015	         -0.35046704	
          4.60000000	          0.14479387	          9.58323311	         -0.34376543	
          4.61000000	          0.15537918	          9.56842919	         -0.33714665	
          4.62000000	          0.16171452	          9.55630279	         -0.33088606	
          4.63000000	          0.16322874	          9.54615104	         -0.32516473	
          4.64000000	          0.15984810	          9.53735003	         -0.32004963	
          4.65000000	          0.15199298	          9.52942995	         -0.31549492	
          4.66000000	          0.14053491	          9.52209408	         -0.31136511	
          4.67000000	          0.12679352	          9.51527741	         -0.30747046	
          4.68000000	          0.11242436	          9.50914648	         -0.30360633	
          4.69000000	          0.09913590	          9.50398407	         -0.29958262	
          4.70000000	          0.08845828	          9.50007419	         -0.29522871	
          4.71000000	          0.08169426	          9.49765015	         -0.29037919	
          4.72000000	          0.07995885	          9.49686801	         -0.28486249	
          4.73000000	          0.08416700	          9.49775938	         -0.27850822	
          4.74000000	          0.09494075	          9.50025136	         -0.27118605	
          4.75000000	          0.11223450	          9.50401798	         -0.26285301	
          4.76000000	          0.13531203	          9.50853931	         -0.25357696	
          4.77000000	          0.16322873	          9.51334573	         -0.24351022	
          4.78000000	          0.19467122	          9.51806215	         -0.23290034	
          4.79000000	          0.22792441	          9.52243804	         -0.22207751	
          4.80000000	          0.26110488	          9.52649096	         -0.21143617	
          4.81000000	          0.29232317	          9.53046936	         -0.20139699	
          4.82000000	          0.31993239	          9.53485121	         -0.19236619	
          4.83000000	          0.34258087	          9.54016253	         -0.18468141	
          4.84000000	          0.35967069	          9.54715646	         -0.17859037	
          4.85000000	          0.37073682	          9.55634939	         -0.17423080	
          4.86000000	          0.37553658	          9.56803251	         -0.17163224	
          4.87000000	          0.37477306	          9.58280024	         -0.17078216	
          4.88000000	          0.36943386	          9.60080246	         -0.17155536	
          4.89000000	          0.36044997	          9.62179858	         -0.17379538	
          4.90000000	          0.34862842	          9.64498613	         -0.17727729	
          4.91000000	          0.33418497	          9.66889242	         -0.18172182	
          4.92000000	          0.31713982	          9.69238892	         -0.18701601	
          4.93000000	          0.29817131	          9.71279545	         -0.19244082	
          4.94000000	          0.27745458	          9.72782363	         -0.19735644	
          4.95000000	          0.25589483	          9.73638479	         -0.20125036	
          4.96000000	          0.23523085	          9.73799176	         -0.20352811	
          4.97000000	          0.21472931	          9.73118205	         -0.20352943	
          4.98000000	          0.19604203	          9.71695763	         -0.20116312	
          4.99000000	          0.17975597	          9.69669501	         -0.19636664	
          5.00000000	          0.16585415	          9.67089001	         -0.18894565	
          5.01000000	          0.15470698	          9.64223855	         -0.17950803	
          5.02000000	          0.14596948	          9.61264530	         -0.16859495	
          5.03000000	          0.13907705	          9.58385715	         -0.15679408	
          5.04000000	          0.13185344	          9.55577607	         -0.14425784	
          5.05000000	          0.12540451	          9.53149864	         -0.13204172	
          5.06000000	          0.11826290	          9.51068910	         -0.12026526	
          5.07000000	          0.10968063	          9.49321543	         -0.10906178	
          5.08000000	          0.09954001	          9.47882897	         -0.09846504	
          5.09000000	          0.08802231	          9.46706373	         -0.08841268	
          5.10000000	          0.07555637	          9.45742902	         -0.07882770	
          5.11000000	          0.06184988	          9.44882968	         -0.06946615	
          5.12000000	          0.04840407	          9.44128237	         -0.06033387	
          5.13000000	          0.03590273	          9.43452163	         -0.05141781	
